<?xml version="1.0" encoding="UTF-8"?>
<svg id="Layer_2" data-name="Layer 2" xmlns="http://www.w3.org/2000/svg" xmlns:xlink="http://www.w3.org/1999/xlink" viewBox="0 0 257.02 134.26">
  <defs>
    <style>
      .cls-1 {
        fill: none;
      }

      .cls-2 {
        fill: #2e6c9a;
        stroke: #4e8dc3;
      }

      .cls-2, .cls-3, .cls-4 {
        stroke-linecap: round;
        stroke-linejoin: round;
      }

      .cls-3 {
        fill: #e06161;
        stroke: #ff9c9c;
      }

      .cls-4 {
        stroke: #4ae6ca;
      }

      .cls-4, .cls-5 {
        fill: #0f594b;
      }

      .cls-6 {
        clip-path: url(#clippath);
      }

      .cls-7 {
        fill: #4ae6ca;
      }
    </style>
    <clipPath id="clippath">
      <rect class="cls-1" x="10.47" y="33.81" width="236.08" height="66.63"/>
    </clipPath>
  </defs>
  <g id="Layer_2_copy" data-name="Layer 2 copy">
    <g>
      <g>
        <rect class="cls-7" x="1.18" y="24.53" width="254.65" height="85.21"/>
        <path class="cls-5" d="M254.8,24.53c.57,0,1.04,.46,1.04,1.04V108.7c0,.57-.46,1.04-1.04,1.04H2.22c-.57,0-1.04-.46-1.04-1.04V25.56c0-.57,.46-1.04,1.04-1.04H254.8m0-1.18H2.22c-1.22,0-2.22,.99-2.22,2.22V108.7c0,1.22,.99,2.22,2.22,2.22H254.8c1.22,0,2.22-.99,2.22-2.22V25.56c0-1.22-.99-2.22-2.22-2.22h0Z"/>
      </g>
      <rect class="cls-5" x="10.47" y="33.81" width="236.08" height="66.63"/>
      <g class="cls-6">
        <g>
          <path class="cls-3" d="M180.78,133.76c9.2,0,16.66-7.46,16.66-16.66h0c9.2,0,16.66-7.46,16.66-16.66,9.2,0,16.66-7.46,16.66-16.66h0c9.2,0,16.66-7.46,16.66-16.66s-7.46-16.66-16.66-16.66h0c0-9.2-7.46-16.66-16.66-16.66h0c0-9.2-7.46-16.66-16.66-16.66h0c0-9.2-7.46-16.66-16.66-16.66H76.24c-9.2,0-16.66,7.46-16.66,16.66h0c-9.2,0-16.66,7.46-16.66,16.66h0c-9.2,0-16.66,7.46-16.66,16.66h0c-9.2,0-16.66,7.46-16.66,16.66s7.46,16.66,16.66,16.66h0c0,9.2,7.46,16.66,16.66,16.66,0,9.2,7.46,16.66,16.66,16.66h0c0,9.2,7.46,16.66,16.66,16.66h104.54Z"/>
          <path class="cls-2" d="M168.25,.5c9.2,0,16.66,7.46,16.66,16.66h0s0,0,0,0c9.2,0,16.66,7.46,16.66,16.66h0s0,0,0,0c9.2,0,16.66,7.46,16.66,16.66h0c9.2,0,16.66,7.46,16.66,16.66,0,9.2-7.46,16.66-16.66,16.66h0c0,9.2-7.46,16.66-16.66,16.66h0c0,9.2-7.46,16.66-16.66,16.66h0c0,9.2-7.46,16.66-16.66,16.66H88.77c-9.2,0-16.66-7.46-16.66-16.66h0c-9.2,0-16.66-7.46-16.66-16.66h0c-9.2,0-16.66-7.46-16.66-16.66h0c-9.2,0-16.66-7.46-16.66-16.66s7.46-16.66,16.66-16.66h0c0-9.2,7.46-16.66,16.66-16.66,0,0,0,0,0,0h0c0-9.2,7.46-16.66,16.66-16.66h0c0-9.2,7.46-16.66,16.66-16.66h79.48Z"/>
          <line class="cls-2" x1="159.41" y1="133.76" x2="96.58" y2="133.76"/>
          <line class="cls-2" x1="160.31" y1="133.76" x2="159.41" y2="133.76"/>
          <line class="cls-2" x1="159.41" y1=".5" x2="160.37" y2=".5"/>
          <line class="cls-2" x1="96.65" y1=".5" x2="159.41" y2=".5"/>
          <path class="cls-4" d="M155.49,133.76c9.2,0,16.66-7.46,16.66-16.66h0c9.2,0,16.66-7.46,16.66-16.66,9.2,0,16.66-7.46,16.66-16.66h0c9.2,0,16.66-7.46,16.66-16.66,0-9.2-7.46-16.66-16.66-16.66h0c0-9.2-7.46-16.66-16.66-16.66h0c0-9.2-7.46-16.66-16.66-16.66h0c0-9.2-7.46-16.66-16.66-16.66h-53.97c-9.2,0-16.66,7.46-16.66,16.66h0c-9.2,0-16.66,7.46-16.66,16.66h0c-9.2,0-16.66,7.46-16.66,16.66h0c-9.2,0-16.66,7.46-16.66,16.66s7.46,16.66,16.66,16.66h0c0,9.2,7.46,16.66,16.66,16.66,0,9.2,7.46,16.66,16.66,16.66h0c0,9.2,7.46,16.66,16.66,16.66h53.97Z"/>
        </g>
      </g>
      <path class="cls-5" d="M246.55,33.81V100.45H10.47V33.81H246.55m0-1.18H10.47c-.65,0-1.18,.53-1.18,1.18V100.45c0,.65,.53,1.18,1.18,1.18H246.55c.65,0,1.18-.53,1.18-1.18V33.81c0-.65-.53-1.18-1.18-1.18h0Z"/>
    </g>
  </g>
</svg>